# AST/ASF file generated using VICON BodyLanguage
# -----------------------------------------------
:version 1.10
:name VICON
:units
  mass 1.0
  length 0.45
  angle deg
:documentation
   .ast/.asf automatically generated from VICON data using
   VICON BodyBuilder and BodyLanguage model FoxedUp or BRILLIANT.MOD
:root
   order TX TY TZ RX RY RZ
   axis XYZ
   position 0 0 0  
   orientation 0 0 0 
:bonedata
  begin
     id 1 
     name lhipjoint
     direction 0.602128 -0.715006 0.355257 
     length 2.21237 
     axis 0 0 0  XYZ
  end
  begin
     id 2 
     name lfemur
     direction 0.34202 -0.939693 0  
     length 6.71649  
     axis 0 0 20  XYZ
    dof rx ry rz
    limits (-160.0 20.0)
           (-70.0 70.0)
           (-60.0 70.0)
  end
  begin
     id 3 
     name ltibia
     direction 0.34202 -0.939693 0   
     length 6.97123   
     axis 0 0 20   XYZ
    dof rx
    limits (-10.0 170.0)
  end
  begin
     id 4 
     name lfoot
     direction 0.0655697 -0.180151 0.981451   
     length 1.80924   
     axis -90 7.62852e-016 20   XYZ
    dof rx rz
    limits (-45.0 90.0)
           (-70.0 20.0)
  end
  begin
     id 5 
     name ltoes
     direction 1.53545e-011 -4.21827e-011 1   
     length 0.916331   
     axis -90 7.62852e-016 20   XYZ
    dof rx
    limits (-90.0 20.0)
  end
  begin
     id 6 
     name rhipjoint
     direction -0.625414 -0.698792 0.347201   
     length 2.2637  
     axis 0 0 0  XYZ 
  end
  begin
     id 7 
     name rfemur
     direction -0.34202 -0.939693 0   
     length 7.07595   
     axis 0 0 -20   XYZ
    dof rx ry rz
    limits (-160.0 20.0)
           (-70.0 70.0)
           (-70.0 60.0)
  end
  begin
     id 8 
     name rtibia
     direction -0.34202 -0.939693 0   
     length 7.22924   
     axis 0 0 -20   XYZ
    dof rx
    limits (-10.0 170.0)
 end
 begin
     id 9 
     name rfoot
     direction -0.0766747 -0.210662 0.974547   
     length 1.98482  
     axis -90 -7.62852e-016 -20   XYZ
    dof rx rz
    limits (-45.0 90.0)
           (-20.0 70.0)
  end
  begin
     id 10 
     name rtoes
     direction -1.53532e-011 -4.21867e-011 1   
     length 0.999842   
     axis -90 -7.62852e-016 -20   XYZ
    dof rx
    limits (-90.0 20.0)
  end
  begin
     id 11 
     name lowerback
     direction -0.0224668 0.997354 -0.0691422   
     length 2.09945   
     axis 0 0 0   XYZ
    dof rx ry rz
    limits (-20.0 45.0)
           (-30.0 30.0)
           (-30.0 30.0)
  end
  begin
     id 12 
     name upperback
     direction 0.0134698 0.998451 -0.0539888   
     length 2.09758   
     axis 0 0 0   XYZ
    dof rx ry rz
    limits (-20.0 45.0)
           (-30.0 30.0)
           (-30.0 30.0)
  end
  begin
     id 13 
     name thorax
     direction 0.0241905 0.99948 -0.0213333   
     length 2.10428   
     axis 0 0 0   XYZ
    dof rx ry rz
    limits (-20.0 45.0)
           (-30.0 30.0)
           (-30.0 30.0)
  end
  begin
     id 14 
     name lowerneck
     direction -0.00866847 0.995978 0.0891737   
     length 1.3959   
     axis 0 0 0   XYZ
    dof rx ry rz
    limits (-20.0 45.0)
           (-30.0 30.0)
           (-30.0 30.0)
  end
  begin
     id 15 
     name upperneck
     direction 0.0680679 0.992203 0.104404   
     length 1.39452   
     axis 0 0 0   XYZ
    dof rx ry rz
    limits (-20.0 45.0)
           (-30.0 30.0)
           (-30.0 30.0)
  end
  begin
     id 16
     name head
     direction 0.0242216 0.999358 0.0264054  
     length 1.40433  
     axis 0 0 0   XYZ
    dof rx ry rz
    limits (-20.0 45.0)
           (-30.0 30.0)
           (-30.0 30.0)
  end
  begin
     id 17 
     name lclavicle
     direction 0.929368 0.362991 -0.0671771  
     length 3.04887  
     axis 0 0 0   XYZ
    dof ry rz
    limits (-20.0 10.0)
           (0.0 20.0)
  end
  begin
     id 18 
     name lhumerus
     direction 1 -4.48967e-011 -7.13741e-028   
     length 4.77195   
     axis -180 -30 -90   XYZ
    dof rx ry rz
    limits (-60.0 90.0)
           (-90.0 90.0)
           (-90.0 90.0)
  end
  begin
     id 19
     name lradius
     direction 1 -4.48977e-011 3.60404e-027   
     length 2.98444   
     axis -180 -30 -90   XYZ
    dof rx
    limits (-10.0 170.0)
  end
  begin
     id 20
     name lwrist
     direction 1 -4.48997e-011 7.54877e-027   
     length 1.49222   
     axis -7.18178e-015 90 90   XYZ
    dof ry
    limits (-180.0 0.0)
 end
  begin
     id 21 
     name lhand
     direction 1 -4.489e-011 1.51105e-026   
     length 0.992285   
     axis -9.63605e-015 90 90   XYZ
    dof rx rz
    limits (-90.0 90.0)
           (-45.0 45.0)
  end
  begin
     id 22 
     name lfingers
     direction 1 -4.48998e-011 3.01948e-026   
     length 0.800006   
     axis -1.92718e-014 90 90   XYZ
    dof rx
    limits (0.0 90.0)
  end
  begin
     id 23
     name lthumb
     direction 0.707107 -6.34881e-011 0.707107   
     length 1.14865   
     axis -90 45 -3.53137e-014   XYZ
    dof rx rz
    limits (-45.0 45.0)
           (-45.0 45.0)
  end
  begin
     id 24 
     name rclavicle
     direction -0.945672 0.324529 0.0196374   
     length 3.4236  
     axis 0 0 0   XYZ 
    dof ry rz
    limits (-10.0 20.0)
           (-20.0 0.0)
  end
  begin
     id 25 
     name rhumerus
     direction -1 -4.4896e-011 1.02757e-029  
     length 4.62052   
     axis -180 30 90   XYZ
    dof rx ry rz
    limits (-90.0 60.0)
           (-90.0 90.0)
           (-90.0 90.0)
  end
  begin
     id 26 
     name rradius
     direction -1 -4.48982e-011 3.85962e-027   
     length 2.95332   
     axis -180 30 90   XYZ
    dof rx
    limits (-10.0 170.0)
  end
  begin
     id 27 
     name rwrist
     direction -1 -4.48961e-011 7.55118e-027   
     length 1.47666   
     axis -7.18178e-015 -90 -90   XYZ
    dof ry
    limits (-180.0 0.0)
  end
  begin
     id 28
     name rhand
     direction -1 -4.48984e-011 1.50994e-026   
     length 0.990956   
     axis -9.63605e-015 -90 -90   XYZ
    dof rx rz
    limits (-90.0 90.0)
           (-45.0 45.0)
  end
  begin
     id 29
     name rfingers
     direction -1 -4.4892e-011 3.02158e-026   
     length 0.798934   
     axis -1.92718e-014 -90 -90   XYZ
    dof rx
    limits (0.0 90.0)
  end
  begin
     id 30
     name rthumb
     direction -0.707107 -6.34916e-011 0.707107   
     length 1.14711   
     axis -90 -45 3.53137e-014   XYZ
    dof rx rz
    limits (-45.0 45.0)
           (-45.0 45.0)
  end
:hierarchy
  begin
    root lhipjoint rhipjoint lowerback
    lhipjoint lfemur
    lfemur ltibia
    ltibia lfoot
    lfoot ltoes
    rhipjoint rfemur
    rfemur rtibia
    rtibia rfoot
    rfoot rtoes
    lowerback upperback
    upperback thorax
    thorax lowerneck lclavicle rclavicle
    lowerneck upperneck
    upperneck head
    lclavicle lhumerus
    lhumerus lradius
    lradius lwrist
    lwrist lhand lthumb
    lhand lfingers
    rclavicle rhumerus
    rhumerus rradius
    rradius rwrist
    rwrist rhand rthumb
    rhand rfingers
  end

#!OML:ASF H:\ManfredObstacles\Project 1\Capture day 1\Session 1\Male.ASF
:FULLY-SPECIFIED
:DEGREES
50
root 11.5496 16.0855 32.3581 -170.1 -7.48068 -178.883
lowerback -9.64383 -2.73898 -3.84719
upperback 2.32636 -3.28734 1.39382
thorax 8.19841 -1.83023 3.09282
lowerneck 1.17299 -2.23483 -4.68249
upperneck -1.43425 -3.09873 9.2261
head -0.428632 -1.66188 3.84687
rclavicle 2.04997e-014 -4.57205e-015
rhumerus -39.7669 -30.1533 -70.0604
rradius 22.8819
rwrist 36.9368
rhand -1.18715 -5.04952
rfingers 7.12502
rthumb 24.4528 -33.5088
lclavicle 2.04997e-014 -4.57205e-015
lhumerus -27.0308 12.6753 83.596
lradius 19.413
lwrist -30.2837
lhand -9.00605 8.35095
lfingers 7.12502
lthumb 16.9406 37.6322
rfemur -24.6086 -0.233517 22.7683
rtibia 31.7917
rfoot -25.3095 5.55519
rtoes 17.4695
lfemur -6.40033 -6.14288 -17.3357
ltibia 30.9449
lfoot -8.22917 -2.11603
ltoes -16.0238
51
root 11.6028 16.0937 32.2433 -170.028 -7.18324 -179.102
lowerback -9.66715 -2.61095 -3.84281
upperback 2.28123 -3.09179 1.11107
thorax 8.1278 -1.72358 2.82399
lowerneck 1.43139 -2.18394 -4.71578
upperneck -1.34951 -3.04739 9.36239
head -0.449018 -1.64397 3.90535
rclavicle -1.2921e-015 -7.95139e-016
rhumerus -39.761 -30.0902 -70.4089
rradius 22.9764
rwrist 36.7094
rhand -1.03823 -5.28764
rfingers 7.12502
rthumb 24.5956 -33.7275
lclavicle -1.2921e-015 -7.95139e-016
lhumerus -27.1598 12.4777 83.3272
lradius 19.7179
lwrist -30.0134
lhand -8.96841 8.25293
lfingers 7.12502
lthumb 16.9768 37.531
rfemur -24.0202 -0.315164 22.8168
rtibia 31.4341
rfoot -25.4743 6.0511
rtoes 18.2513
lfemur -8.2967 -5.83959 -17.3841
ltibia 34.7541
lfoot -6.18662 -1.26498
ltoes -8.37146
52
root 11.6544 16.1031 32.1325 -169.971 -6.99411 -179.443
lowerback -9.55713 -2.61528 -4.09326
upperback 2.26245 -3.0581 0.950478
thorax 8.04645 -1.7131 2.80459
lowerneck 1.40742 -2.09017 -4.99779
upperneck -1.06833 -2.93821 9.40171
head -0.358557 -1.58121 3.97076
rclavicle -3.72721e-015 -5.36719e-015
rhumerus -39.4269 -29.3819 -70.9759
rradius 23.1228
rwrist 36.1314
rhand -1.04224 -5.43091
rfingers 7.12502
rthumb 24.5917 -33.8713
lclavicle -3.72721e-015 -5.36719e-015
lhumerus -27.2089 12.6084 83.2148
lradius 19.9784
lwrist -29.7197
lhand -9.12497 8.14004
lfingers 7.12502
lthumb 16.8261 37.431
rfemur -23.4062 -0.385105 22.7008
rtibia 31.0376
rfoot -25.6107 6.42695
rtoes 18.4009
lfemur -10.5321 -5.60273 -17.5367
ltibia 38.8044
lfoot -3.4373 -0.154873
ltoes 1.17869
53
root 11.703 16.1112 32.0225 -169.974 -6.94022 -179.547
lowerback -9.39104 -2.62735 -4.10268
upperback 2.27896 -3.0757 0.888751
thorax 7.96663 -1.71978 2.74731
lowerneck 1.21374 -1.94211 -5.06211
upperneck -0.910692 -2.73343 9.17497
head -0.29212 -1.46543 3.89813
rclavicle 2.93207e-014 8.15017e-015
rhumerus -39.0432 -28.5753 -71.5315
rradius 23.2937
rwrist 35.6747
rhand -1.07605 -5.27548
rfingers 7.12502
rthumb 24.5593 -33.7203
lclavicle 2.93207e-014 8.15017e-015
lhumerus -27.2136 12.6662 83.2273
lradius 20.3732
lwrist -29.2583
lhand -9.19022 8.11654
lfingers 7.12502
lthumb 16.7633 37.4128
rfemur -22.7442 -0.631461 22.849
rtibia 30.5917
rfoot -25.6592 6.87519
rtoes 18.875
lfemur -12.9197 -5.26327 -17.4081
ltibia 42.8811
lfoot -0.410107 0.859042
ltoes 12.6308
54
root 11.7444 16.1191 31.9127 -169.993 -6.98456 -179.416
lowerback -9.23011 -2.57407 -3.75783
upperback 2.28169 -3.04907 0.833033
thorax 7.85032 -1.68744 2.50525
lowerneck 1.29369 -1.88788 -5.1014
upperneck -0.978383 -2.65334 9.0637
head -0.335335 -1.42442 3.86858
rclavicle -2.1916e-014 6.55989e-015
rhumerus -38.8149 -28.0168 -71.9428
rradius 23.5392
rwrist 35.4577
rhand -0.927659 -5.2373
rfingers 7.12502
rthumb 24.7015 -33.6627
lclavicle -2.1916e-014 6.55989e-015
lhumerus -27.2713 12.4185 83.3171
lradius 20.9326
lwrist -28.5325
lhand -9.15376 8.18578
lfingers 7.12502
lthumb 16.7984 37.4791
rfemur -22.0605 -1.10071 23.2334
rtibia 30.0659
rfoot -25.6575 7.39568
rtoes 19.2077
lfemur -15.385 -4.8993 -17.0547
ltibia 46.8125
lfoot 1.99046 1.69898
ltoes 22.4715
55
root 11.779 16.121 31.803 -169.982 -7.03332 -179.11
lowerback -9.08289 -2.43629 -3.18392
upperback 2.24164 -2.93683 0.802942
thorax 7.67894 -1.60236 2.17635
lowerneck 1.32017 -1.87114 -5.01663
upperneck -0.948639 -2.62825 8.92408
head -0.335352 -1.40954 3.80277
rclavicle -5.71506e-014 5.1684e-015
rhumerus -38.6766 -27.5688 -72.2231
rradius 23.781
rwrist 35.3076
rhand -0.822077 -5.19979
rfingers 7.12502
rthumb 24.8027 -33.6113
lclavicle -5.71506e-014 5.1684e-015
lhumerus -27.3031 12.1931 83.3963
lradius 21.332
lwrist -28.0408
lhand -9.17803 7.93421
lfingers 7.12502
lthumb 16.7751 37.2295
rfemur -21.4046 -1.62358 23.7761
rtibia 29.4461
rfoot -25.7281 7.94499
rtoes 19.3327
lfemur -17.9683 -4.63467 -16.5804
ltibia 50.3948
lfoot 2.95212 2.14848
ltoes 26.8204
56
root 11.8093 16.1198 31.6928 -169.991 -6.96974 -178.768
lowerback -8.91524 -2.23062 -2.63622
upperback 2.21793 -2.73249 0.814641
thorax 7.5148 -1.4761 1.92066
lowerneck 1.32402 -1.90916 -4.79288
upperneck -0.939904 -2.67053 8.65233
head -0.336352 -1.42661 3.66355
rclavicle 5.71506e-015 3.37934e-015
rhumerus -38.3719 -27.0404 -72.5423
rradius 23.9067
rwrist 35.0525
rhand -0.901533 -5.2387
rfingers 7.12502
rthumb 24.7266 -33.6607
lclavicle 5.71506e-015 3.37934e-015
lhumerus -27.2212 12.2762 83.4914
lradius 21.4778
lwrist -28.0441
lhand -9.34973 7.54652
lfingers 7.12502
lthumb 16.6098 36.8558
rfemur -20.7375 -2.17347 24.3481
rtibia 28.7861
rfoot -25.9084 8.61583
rtoes 19.7073
lfemur -20.4675 -4.36975 -16.1681
ltibia 53.4142
lfoot 2.51655 2.15003
ltoes 27.3218
